<svg xmlns="http://www.w3.org/2000/svg" width="827.127" height="572.456" viewBox="0 0 827.127 572.456">
  <g id="Group_58" data-name="Group 58" transform="translate(-240.032 -137.85)">
    <path id="Path_107" data-name="Path 107" d="M334.973,710.056s-102.992-105.633-37.4-229.848S451.171,418.5,446.96,273.9s202.514-156.955,268.3-115,65.373,92.449,201.217,75.788,161.746,122.627,126.382,193.6c-50.176,100.7,139.133,84.151,19.783,282.027Z" transform="translate(-35.69 0)" fill="#ebf3fa"/>
    <path id="Path_108" data-name="Path 108" d="M1684.239,468.048a168.44,168.44,0,0,1-2.7,30.126,167.3,167.3,0,0,1-317.519,37.584,164.39,164.39,0,0,1-8.518-24.052,168.432,168.432,0,0,1-1.969-79.248c.025-.133.058-.259.083-.392a167.692,167.692,0,0,1,65.282-99.5q5.156-3.742,10.612-7.091a166.355,166.355,0,0,1,87.483-24.686q6.382,0,12.639.475a166.118,166.118,0,0,1,82.835,29.442h.009a167.886,167.886,0,0,1,45.877,47.9q3.842,6.069,7.175,12.473a166.484,166.484,0,0,1,18.713,76.962Z" transform="translate(-747.069 -107.926)" fill="#dce8ff"/>
    <path id="Path_109" data-name="Path 109" d="M1467.615,441.607c-6.674,10.571,2.787,28.925-17.236,23.919s-32.262-7.233-33.372,3.888,15.017,11.129,15.017,22.809-7.233,15.543-18.354,9.995-14.325-13.615-27.256-8.61-20.44,1.669-23.36-8.343a14.637,14.637,0,0,0-2.077-4.38c.025-.133.058-.259.083-.392a167.7,167.7,0,0,1,65.282-99.5q5.156-3.742,10.612-7.091c5.214.192,11.446,2.169,16.761,8.743,11.679,14.466,19.463,7.233,16.686,23.919s1.668,18.913,11.121,18.354,20.581-.559,21.691,6.674S1474.289,431.037,1467.615,441.607Z" transform="translate(-754.516 -156.353)" fill="#9fbdff" opacity="0.7"/>
    <path id="Path_110" data-name="Path 110" d="M1713.311,808s-14.739,4.727-18.632-5.562.556-12.514-12.514-15.573-14.182-11.958-22.525-10.846-4.172,4.449-13.9,11.68-18.633,3.893-18.354,17.242,14.739,15.434,17.659,24.194-2.086,12.514,4.172,19.188,17.937,3.754,12.514,12.931-13.765,16.268-9.594,30.451,1.252,15.017,8.343,25.028,20.857,13.348,22.943,6.674-9.594-15.434-5.84-22.108,10.011-2.086,12.514-12.1,12.654-10.011,13.487-16.964-12.236-17.52-7.231-21.969,15.017,8.065,22.8-3.059,2.5-20.023,10.567-30.59S1718.873,801.88,1713.311,808Z" transform="translate(-930.966 -422.631)" fill="#9fbdff" opacity="0.7"/>
    <path id="Path_111" data-name="Path 111" d="M2087.272,657.853a168.442,168.442,0,0,1-2.7,30.126,166.334,166.334,0,0,1-26.4,64.165,19.089,19.089,0,0,1-13.373-.359c-20.857-8.343-5.423-30.868,2.919-42.131s-12.931-6.257-28.365-16.686,1.669-38.377-14.183-33.788-35.04,10.428-44.217-5.006,8.343-17.937.418-30.868,4.589-20.44,20.439-21.691,13.765-12.514,33.371-14.183,19.189,23.36,40.88,21.691,20.715,3.337,20.715,3.337a10.108,10.108,0,0,1,4.53.951A167.58,167.58,0,0,1,2087.272,657.853Z" transform="translate(-1150.102 -297.73)" fill="#9fbdff" opacity="0.7"/>
    <path id="Path_112" data-name="Path 112" d="M2086.129,449.768c-18.037,8.776-25.279-15.092-40.7-7.917-15.543,7.233-12.823-6.674-25.054-15.576s-36.708,7.233-35.6-6.674,19.464-10.011,23.359-21.132,21.691-8.343,21.691-8.343a12.056,12.056,0,0,1,3.237-.734s0-.008.009,0a167.886,167.886,0,0,1,45.877,47.9Q2082.8,443.364,2086.129,449.768Z" transform="translate(-1167.673 -166.607)" fill="#9fbdff" opacity="0.7"/>
    <path id="Path_113" data-name="Path 113" d="M1748.53,388.48s9.455-13.642-5.562-17.667-14.739,1.243-26.419,0-16.268,7.794-7.508,17.667,15.851,28.817,23.777,18.719S1739.214,389.453,1748.53,388.48Z" transform="translate(-982.037 -153.283)" fill="#9fbdff" opacity="0.7"/>
    <path id="Path_114" data-name="Path 114" d="M2323,1489.88c6.651-21.2-27.463-35.038-27.463-35.038s-40.917,18.4-47.424,15.309,31.911-22.566,31.911-22.566c-10.952-8.587-49.844-13.279-49.844-13.279s-21.69,38.11-27.234,33.507,20.927-32.764,20.927-32.764c-13.463-3.826-32.427,2.619-32.427,2.619-26.892,13.047-16.551,59.949-33.841,69.586h0a51.719,51.719,0,0,0-8.275,5.022l3.08,1.967q1.169-1,2.364-1.856a.019.019,0,0,1,.014-.011l.035-.024c.515-.341,1.251-.825,2.156-1.408l0,0s0,0,0,0c2.117-1.241,3.622-2.2,4.652-2.922l.009-.007c6.513-3.982,19.19-9.41,19.106-8.772-1.944,14.666,23.215,33.387,39.826,39.755s12.855-1.863,9.241-13.638-21.316-20.586-24.528-26.349,5.627-3.829,14.938,3.178,7.952,19.925,22.807,31.534,45.908-10.444,45.908-10.444c-13.086-3.586-28.82-22.12-27.168-26.367s30.41,14.651,35.651,16.408S2316.348,1511.084,2323,1489.88Z" transform="translate(-1276.686 -858.405)" fill="#dfebfd"/>
    <path id="Path_115" data-name="Path 115" d="M357.795,1324.47c3.175-28.33,50.376-26.9,50.376-26.9s38.494,42.789,47.734,42.526-25.768-43.011-25.768-43.011c17.3-4.406,65.377,10.227,65.377,10.227s5.723,55.959,14.614,53.429-7.6-49.291-7.6-49.291c17.782,2.48,36.7,19.865,36.7,19.865,24.806,29.239-11.617,78.932,3.685,99.194h0a66.34,66.34,0,0,1,7.112,10.18l-4.634.714q-.855-1.777-1.812-3.4a.027.027,0,0,0-.012-.02l-.028-.047c-.428-.667-1.041-1.615-1.8-2.77l0,0s0,0,0-.006c-1.843-2.553-3.114-4.453-3.947-5.838a.066.066,0,0,1-.007-.013c-5.582-8.046-17.65-20.983-17.882-20.188-5.312,18.219-44.535,27.163-67.33,26.036s-14.123-8.844-3.784-20.792,35.679-13.123,42.433-18.224-4.622-7.408-19.178-4-19.651,19.268-43.1,25.2-48.473-36.032-48.473-36.032c17.216,2.567,45.28-11.038,45.541-16.877s-43.278,1.449-50.339.8S354.62,1352.8,357.795,1324.47Z" transform="translate(-89.746 -767.278)" fill="#dfebfd"/>
    <g id="Group_23" data-name="Group 23" transform="translate(914.432 509.365)">
      <path id="Path_116" data-name="Path 116" d="M2287.16,1305.965s12.228-43.613,39.13-66.586a5.03,5.03,0,0,1,8.2,4.722c-.014.077-.028.155-.043.234C2332.914,1252.216,2302.21,1281.684,2287.16,1305.965Z" transform="translate(-2282.411 -1238.169)" fill="#c5ddff" opacity="0.5"/>
      <path id="Path_117" data-name="Path 117" d="M2273.1,1336.1s31.343-52.011,73.927-70.539a5.336,5.336,0,0,1,6.939,2.465c.8,1.663.9,4.082-.833,7.565C2348.518,1284.878,2300.169,1311.031,2273.1,1336.1Z" transform="translate(-2273.096 -1256.011)" fill="#c5ddff" opacity="0.5"/>
    </g>
    <g id="Group_24" data-name="Group 24" transform="translate(323.228 461.614)">
      <path id="Path_118" data-name="Path 118" d="M656.187,1164.54s-12.227-43.613-39.129-66.586a5.03,5.03,0,0,0-8.2,4.722c.014.077.028.155.044.234C610.434,1110.791,641.138,1140.258,656.187,1164.54Z" transform="translate(-579.519 -1096.743)" fill="#c5ddff" opacity="0.5"/>
      <path id="Path_119" data-name="Path 119" d="M603.54,1194.673s-31.343-52.01-73.927-70.539a5.336,5.336,0,0,0-6.938,2.465c-.8,1.662-.9,4.081.833,7.565C528.117,1143.452,576.465,1169.606,603.54,1194.673Z" transform="translate(-522.123 -1114.586)" fill="#c5ddff" opacity="0.5"/>
    </g>
    <path id="Path_120" data-name="Path 120" d="M1352.685,582.726l-.132,381.5a22.691,22.691,0,0,1-22.7,22.685l-199.428-.068a22.691,22.691,0,0,1-22.685-22.7l.131-381.5a22.691,22.691,0,0,1,22.7-22.681l199.43.069A22.69,22.69,0,0,1,1352.685,582.726Z" transform="translate(-586.785 -279.588)" fill="#c2cfff"/>
    <path id="Path_121" data-name="Path 121" d="M1324.266,984.172l-199.43-.069a25.569,25.569,0,0,1-25.531-25.549l.131-381.5a25.568,25.568,0,0,1,25.549-25.531l199.43.069a25.569,25.569,0,0,1,25.531,25.549l-.132,381.5A25.569,25.569,0,0,1,1324.266,984.172ZM1124.983,557.217a19.866,19.866,0,0,0-19.85,19.837l-.132,381.5a19.867,19.867,0,0,0,19.837,19.85l199.43.068a19.866,19.866,0,0,0,19.85-19.836l.131-381.5a19.866,19.866,0,0,0-19.836-19.851Z" transform="translate(-581.196 -273.998)" fill="#163560"/>
    <g id="Group_28" data-name="Group 28" transform="translate(537.692 297.887)">
      <path id="Path_122" data-name="Path 122" d="M1205.154,663.927l-3.354,2.4-3.37-2.381a4.127,4.127,0,0,1,6.723-.024Z" transform="translate(-1184.545 -645.198)" fill="#fff"/>
      <g id="Group_25" data-name="Group 25" transform="translate(9.101 11.145)">
        <path id="Path_123" data-name="Path 123" d="M1192.417,644.841a9.964,9.964,0,0,0-8.158,4.236l2.128,1.495a7.371,7.371,0,0,1,12.022-.039l2.12-1.519A9.973,9.973,0,0,0,1192.417,644.841Z" transform="translate(-1184.259 -644.841)" fill="#fff"/>
      </g>
      <g id="Group_26" data-name="Group 26">
        <path id="Path_124" data-name="Path 124" d="M1174.567,611.833a21.083,21.083,0,0,0-17.262,8.959l2.127,1.495a18.508,18.508,0,0,1,30.185-.1l2.111-1.519A21.088,21.088,0,0,0,1174.567,611.833Z" transform="translate(-1157.305 -611.833)" fill="#fff"/>
      </g>
      <g id="Group_27" data-name="Group 27" transform="translate(4.95 6.098)">
        <path id="Path_125" data-name="Path 125" d="M1184.276,629.894a15.083,15.083,0,0,0-12.311,6.354l2.128,1.495a12.5,12.5,0,0,1,20.309-.071l2.111-1.511A15.08,15.08,0,0,0,1184.276,629.894Z" transform="translate(-1171.965 -629.894)" fill="#fff"/>
      </g>
    </g>
    <g id="Group_29" data-name="Group 29" transform="translate(486.323 188.319)">
      <path id="Path_126" data-name="Path 126" d="M1275.631,427.035a57.037,57.037,0,0,0-33.332-3.149s21.491-1.468,34.235,12.172c0,0,8.912-13.667,23.644-16.8C1300.178,419.258,1289.2,417.949,1275.631,427.035Z" transform="translate(-1162.232 -374.667)" fill="#9fc1f4"/>
      <path id="Path_127" data-name="Path 127" d="M1169.093,411.228a44.115,44.115,0,0,0-25.765-2.586s16.629-1.038,26.423,9.569c0,0,6.954-10.529,18.362-12.886C1188.113,405.324,1179.629,404.262,1169.093,411.228Z" transform="translate(-1096.678 -365.443)" fill="#9fc1f4"/>
      <path id="Path_128" data-name="Path 128" d="M1066.318,396.149a40.162,40.162,0,0,0-23.535-1.36s15.086-1.585,24.4,7.686c0,0,5.92-9.845,16.206-12.429C1083.391,390.046,1075.633,389.407,1066.318,396.149Z" transform="translate(-1030.081 -355.352)" fill="#9fc1f4"/>
      <path id="Path_129" data-name="Path 129" d="M1021.12,366.979a27.2,27.2,0,0,0-15.956.568s10.072-2.021,16.94,3.643c0,0,3.371-7.012,10.144-9.4C1032.248,361.787,1026.976,361.846,1021.12,366.979Z" transform="translate(-1005.164 -336.645)" fill="#9fc1f4"/>
      <path id="Path_130" data-name="Path 130" d="M1236.139,291.929a27.2,27.2,0,0,0-15.964-.265s10.164-1.492,16.727,4.522c0,0,3.732-6.827,10.62-8.861C1247.523,287.324,1242.255,287.108,1236.139,291.929Z" transform="translate(-1147.578 -287.323)" fill="#9fc1f4"/>
      <path id="Path_131" data-name="Path 131" d="M1326.822,364.271a39.629,39.629,0,0,0-23.112-2.631s14.948-.734,23.619,8.911c0,0,6.372-9.375,16.647-11.355C1343.976,359.2,1336.368,358.141,1326.822,364.271Z" transform="translate(-1202.908 -334.882)" fill="#9fc1f4"/>
      <path id="Path_132" data-name="Path 132" d="M1288.77,317.556a36.638,36.638,0,0,0-21.444-1.625s13.784-1.2,22.131,7.409c0,0,5.56-8.883,14.984-11.072C1304.441,312.268,1297.375,311.559,1288.77,317.556Z" transform="translate(-1178.809 -303.828)" fill="#9fc1f4"/>
    </g>
    <g id="Group_30" data-name="Group 30" transform="translate(858.252 314.802)">
      <path id="Path_133" data-name="Path 133" d="M2106.708,692.223c0,16.728,28.17,43.468,28.17,43.468s28.169-26.739,28.169-43.468-12.611-30.293-28.169-30.293S2106.708,675.495,2106.708,692.223Zm11.571-1.776a16.6,16.6,0,1,1,16.6,16.6A16.627,16.627,0,0,1,2118.279,690.446Z" transform="translate(-2106.708 -661.93)" fill="#f78e48"/>
    </g>
    <g id="Group_31" data-name="Group 31" transform="translate(762.062 209.524)">
      <path id="Path_134" data-name="Path 134" d="M1821.823,379.224c0,16.068,27.058,41.752,27.058,41.752s27.057-25.684,27.057-41.752-12.114-29.1-27.057-29.1S1821.823,363.156,1821.823,379.224Zm11.114-1.706a15.943,15.943,0,1,1,15.944,15.943A15.971,15.971,0,0,1,1832.937,377.518Z" transform="translate(-1821.823 -350.127)" fill="#f78e48"/>
    </g>
    <g id="Group_33" data-name="Group 33" transform="translate(849.186 553.65)">
      <path id="Rectangle_15" data-name="Rectangle 15" d="M0,0H89.049a0,0,0,0,1,0,0V.986A12.116,12.116,0,0,1,76.933,13.1H13.1A13.1,13.1,0,0,1,0,0V0A0,0,0,0,1,0,0Z" transform="translate(3.056 132.401)" fill="#163560"/>
      <path id="Path_135" data-name="Path 135" d="M2175.018,1402.634v106.274a16.941,16.941,0,0,1-.414,3.731h-12.465a9.786,9.786,0,0,0-9.78,9.789v3.313h-48.832v-3.313a9.772,9.772,0,0,0-9.781-9.789h-13.473a16.912,16.912,0,0,1-.415-3.731V1402.634a16.823,16.823,0,0,1,16.818-16.832H2158.2A16.823,16.823,0,0,1,2175.018,1402.634Z" transform="translate(-2079.858 -1380.239)" fill="#f78248"/>
      <g id="Group_32" data-name="Group 32" transform="translate(27.137)">
        <path id="Path_136" data-name="Path 136" d="M2198.589,1374.833c-22.038-8.687-37.412-.138-37.564-.051l-.795-1.383a34.93,34.93,0,0,1,10.884-3.45,52.729,52.729,0,0,1,28.061,3.4Z" transform="translate(-2160.23 -1369.326)" fill="#163560"/>
      </g>
      <rect id="Rectangle_16" data-name="Rectangle 16" width="6.446" height="8.779" transform="translate(9.07 140.582)" fill="#163560"/>
      <path id="Path_137" data-name="Path 137" d="M2102.685,1806.627a4.586,4.586,0,1,1,4.585,4.589A4.588,4.588,0,0,1,2102.685,1806.627Z" transform="translate(-2094.977 -1655.936)" fill="#1f4777"/>
      <path id="Path_138" data-name="Path 138" d="M2108.022,1810.165a2.784,2.784,0,1,1,2.783,2.786A2.784,2.784,0,0,1,2108.022,1810.165Z" transform="translate(-2098.512 -1659.473)" fill="#163560"/>
      <rect id="Rectangle_17" data-name="Rectangle 17" width="6.446" height="8.779" transform="translate(75.358 140.582)" fill="#163560"/>
      <path id="Path_139" data-name="Path 139" d="M2299.012,1806.627a4.586,4.586,0,1,1,4.585,4.589A4.587,4.587,0,0,1,2299.012,1806.627Z" transform="translate(-2225.016 -1655.936)" fill="#1f4777"/>
      <path id="Path_140" data-name="Path 140" d="M2304.348,1810.165a2.784,2.784,0,1,1,2.784,2.786A2.785,2.785,0,0,1,2304.348,1810.165Z" transform="translate(-2228.551 -1659.473)" fill="#163560"/>
      <path id="Path_141" data-name="Path 141" d="M2132.122,1385.8v128.45a9.791,9.791,0,0,0-2.452-1.165V1385.8Z" transform="translate(-2112.851 -1380.239)" fill="#e06832"/>
      <rect id="Rectangle_18" data-name="Rectangle 18" width="2.452" height="139.94" transform="translate(36.444 5.563)" fill="#e06832"/>
      <rect id="Rectangle_19" data-name="Rectangle 19" width="2.452" height="139.94" transform="translate(54.757 5.563)" fill="#e06832"/>
      <path id="Path_142" data-name="Path 142" d="M2303.165,1385.8v128.374a9.671,9.671,0,0,0-2.452,2.231V1385.8Z" transform="translate(-2226.143 -1380.239)" fill="#e06832"/>
    </g>
    <g id="Group_35" data-name="Group 35" transform="translate(786.297 423.711)">
      <path id="Path_143" data-name="Path 143" d="M1920.957,1210.268c0-.183,2.684-5.733,1.83-6.159s-2.383-.363-2.561.609S1920.957,1210.268,1920.957,1210.268Z" transform="translate(-1911.22 -1129.789)" fill="#ffb27d"/>
      <path id="Path_144" data-name="Path 144" d="M1904.348,1204.321c0-.544-.628-8.852-2.03-10.506s-4.262-4.005-5.162-3.933-4.42,4.749-3.362,8.333,5.524,8.433,5.524,8.433Z" transform="translate(-1893.598 -1120.53)" fill="#ffb27d"/>
      <g id="Group_34" data-name="Group 34" transform="translate(0.968 57.166)">
        <path id="Path_145" data-name="Path 145" d="M1914.814,1170.355l-8.158,2.446a.512.512,0,0,1-.637-.343l-4.662-15.556a.512.512,0,0,1,.343-.637l8.159-2.445a.511.511,0,0,1,.637.343l4.663,15.557A.511.511,0,0,1,1914.814,1170.355Z" transform="translate(-1899.69 -1153.797)" fill="#f1a34f"/>
        <path id="Path_146" data-name="Path 146" d="M1909.469,1172.2l-7.4,2.218a.908.908,0,0,1-1.13-.609l-4.435-14.8a.907.907,0,0,1,.609-1.13l7.4-2.218a.908.908,0,0,1,1.13.609l4.435,14.8A.907.907,0,0,1,1909.469,1172.2Z" transform="translate(-1896.466 -1155.009)" fill="#d86713"/>
      </g>
      <path id="Path_147" data-name="Path 147" d="M1901.642,1181.968s3.4-5.227,4.227-4.936c1.185.415-3.081,7.048-3.081,7.048s3.161-4.956,3.654-4.584c1.125.849-.665,3.964-2.441,6.351,0,0,3.178-2.91,3.281-2.386.363,1.836-3.489,6.285-3.489,6.285l-2.153-4.917Z" transform="translate(-1898.926 -1112.013)" fill="#ffb27d"/>
      <path id="Path_148" data-name="Path 148" d="M1894.094,1182.474c.165-.64.994-13.122,1.349-11.938s1.2,7.73,1.2,7.73Z" transform="translate(-1893.926 -1107.665)" fill="#ffb27d"/>
      <path id="Path_149" data-name="Path 149" d="M1958.53,1160.7s-.356,13.572-4.27,24.525c-3.092,8.65-8.4,15.667-17.516,13.075q-1.4-.4-2.709-.856a.029.029,0,0,0-.011,0c-18.512-6.449-24.5-21.21-24.5-21.21,1.378-2.273,5.373-3.111,5.373-3.111,3.728.2,20.111,7.157,21.157,7.369,3.789.762,6.85-20.062,9.313-27.276s12.541-10.442,12.541-10.442Z" transform="translate(-1904.145 -1089.326)" fill="#739af0"/>
      <path id="Path_150" data-name="Path 150" d="M2002.7,1239.517l-.356,9.779c-3.092,8.65-8.4,15.667-17.516,13.075q-1.4-.4-2.709-.856c.292.039,5.869.792,8.2-1.542,2.4-2.4,2.148-10.359,6.566-15.663S2002.7,1239.517,2002.7,1239.517Z" transform="translate(-1952.234 -1153.399)" fill="#5283db"/>
      <path id="Path_151" data-name="Path 151" d="M2012.212,1765.378s4.556,4.158,3.667,7.113-5,4.924-5.557,8.535-2.778,5.58-4.778,5.58h-9.536s-1.473-2.541,2.084-3.307,4.9-5.009,4.674-8.948a69.311,69.311,0,0,1,.334-9.191l7.556-1.751Z" transform="translate(-1961.229 -1500.411)" fill="#133054"/>
      <path id="Path_152" data-name="Path 152" d="M1895.917,1787.492H1924a2.032,2.032,0,0,0,2.036-1.974,14.336,14.336,0,0,0-1-6.056c-1.5-3.324-2.446-3.9,3.885-13.574-1.9,1.959-7.036,1.063-11.367.481-.531.86-8.565,13.274-10.338,14.547C1905.249,1782.324,1896.52,1781.822,1895.917,1787.492Z" transform="translate(-1895.134 -1502.054)" fill="#163560"/>
      <path id="Path_153" data-name="Path 153" d="M1973.773,1362.747s-20.358,38.414-25.89,59.567c-4.294,16.419,21.912,79.945,21.912,79.945a21,21,0,0,0,5.635-1.515,9.146,9.146,0,0,0,4.738-4.965s-1.555-45.422-6.859-67.4c-1.19-4.932,5.768-20.843,17.514-29.558s16.636-36.752,9.644-38.646S1973.773,1362.747,1973.773,1362.747Z" transform="translate(-1929.239 -1233.017)" fill="#163560"/>
      <path id="Path_154" data-name="Path 154" d="M1989.46,1336.407s-21.4,78.454-27.894,96.071-16.789,55.009-16.789,55.009a27.131,27.131,0,0,0,14.845,1.61s31.294-45.846,32.657-66.109c.63-9.365,32.108-46.5,28.6-70.706Z" transform="translate(-1927.497 -1217.583)" fill="#1c468a"/>
      <path id="Path_155" data-name="Path 155" d="M2063.589,1227.448s-4.555,2.3-12.606,2.97h-.008c-9.219.773-23.024-.584-39.84-9.946,0,0-4.69-3.865,1.073-20.3,4.361-12.443,6.487-38.677,11.81-62.584,0,0,17.27-5.418,31.125-.735,10.587,3.58,9.533,19.827,11.489,36.744.181,1.58.39,3.164.636,4.744C2070.158,1196.86,2063.589,1227.448,2063.589,1227.448Z" transform="translate(-1970.257 -1084.144)" fill="#739af0"/>
      <path id="Path_156" data-name="Path 156" d="M2034.787,1014.134s11.787-19.187,20.915-9.313c0,0,5.968,1.524,9.385,10.816,3.488,9.479-1.944,17.85-5.571,16.5-2.326-.867-3.414,3.142-3.414,3.142Z" transform="translate(-1987.115 -996.085)" fill="#233862"/>
      <path id="Path_157" data-name="Path 157" d="M2091.377,991.71s.812-7.944,12.419-7.171c0,0-5.49.1-6.668,2.388,0,0,3.991-2.572,6.9-1.321s4.145,6.7,3.988,8.434-2.393,7.153-4.35,7.435-4.52-1.1-4.52-1.1Z" transform="translate(-2024.598 -984.486)" fill="#233862"/>
      <path id="Path_158" data-name="Path 158" d="M2076.465,1109.265a53.513,53.513,0,0,1-4.017-15.236l-.7.245-11.717,4.127s.821,3.756,1.345,7.33c.215,1.462.367,4.07.468,6.348.1,2.328,2.393,2.549,4.721,2.441C2072.762,1114.233,2076.176,1111.922,2076.465,1109.265Z" transform="translate(-2003.838 -1057.043)" fill="#ffb27d"/>
      <path id="Path_159" data-name="Path 159" d="M2060.034,1098.88s.821,3.756,1.345,7.33c6.722-1.163,9.4-7.834,10.372-11.457Z" transform="translate(-2003.838 -1057.523)" fill="#e8945b"/>
      <path id="Path_160" data-name="Path 160" d="M2052.738,1043.435s2.731-6.1,2.892-11c.114-3.5-3.447-15.894-15.892-12.241a17.44,17.44,0,0,0-6.77,3.739c-2.491,2.261-5.892,6.858.151,17.251l1.694,3.561Z" transform="translate(-1983.769 -1007.697)" fill="#233862"/>
      <path id="Path_161" data-name="Path 161" d="M2038.952,1062.857s16.005-2.038,14.583-11.987-.315-16.912-10.6-16.031-11.718,4.96-12.051,8.4S2034.752,1063.131,2038.952,1062.857Z" transform="translate(-1984.522 -1017.788)" fill="#ffb27d"/>
      <path id="Path_162" data-name="Path 162" d="M2044.973,1032.117s6.054,11.04,13.012,11.8,9.61-1.459,9.61-1.459a19.2,19.2,0,0,1-7.833-10.329S2047.47,1026.089,2044.973,1032.117Z" transform="translate(-1993.862 -1014.262)" fill="#233862"/>
      <path id="Path_163" data-name="Path 163" d="M2034.151,1036.727s-2.89,3.076-3.32,5.724-.037,7.914-1.583,7.956c0,0-4.437-7.457-1.382-12.478C2031.1,1032.606,2034.151,1036.727,2034.151,1036.727Z" transform="translate(-1981.82 -1018.081)" fill="#233862"/>
      <path id="Path_164" data-name="Path 164" d="M2046.959,1034.506s4.877,11.771,13.908,14.464c0,0-9.549-6.288-11.431-14.251S2046.959,1034.506,2046.959,1034.506Z" transform="translate(-1995.177 -1015.377)" fill="#233862"/>
      <path id="Path_165" data-name="Path 165" d="M2139.926,1300.685s-4.554,2.3-12.6,2.97h-.009s-6.615-8.293.766-17.588-.576-26.442,5.107-35.771c3.956-6.49,7.805-4.978,9.782-3.463.182,1.58.391,3.164.637,4.744C2146.5,1270.1,2139.926,1300.685,2139.926,1300.685Z" transform="translate(-2046.595 -1157.382)" fill="#5283db"/>
      <path id="Path_166" data-name="Path 166" d="M2246.51,1368.084s.982,2.285,2.352,2.438a28.721,28.721,0,0,1,7.17,2.522c1.814,1.077,1.691,5.894-.123,6.348s-2.72-3.59-8.389-4.673c-1.922-.367-4.723.961-5.857-3.645Z" transform="translate(-2124.142 -1238.564)" fill="#ffb27d"/>
      <path id="Path_167" data-name="Path 167" d="M2138.329,1140.338c16.481,6.062,17.089,35.26,24.438,48.119,7.578,13.261,14.958,30.715,14.958,30.715s-.134.523-2.959,1.332a11.812,11.812,0,0,1-4.067.328s-15.571-14.086-19.8-19.643-14.206-31.336-14.206-31.336S2131.785,1137.932,2138.329,1140.338Z" transform="translate(-2053.443 -1087.63)" fill="#739af0"/>
      <path id="Path_168" data-name="Path 168" d="M2242.869,1380.32a6.239,6.239,0,0,0,2.831,3.549c2.43,1.587,4.38,3.174,4.615,2.191s-1.353-2.04-1.73-3.854S2242.869,1380.32,2242.869,1380.32Z" transform="translate(-2124.94 -1246.669)" fill="#ffb27d"/>
    </g>
    <rect id="Rectangle_20" data-name="Rectangle 20" width="239.178" height="173.142" transform="translate(523.805 460.13)" fill="#f78e48"/>
    <path id="Path_169" data-name="Path 169" d="M1411.507,1706.318v23.357c0,.287-.006.573-.018.856h-119.6c-.012-.283-.018-.57-.018-.856v-23.357c0-10.655,6.878-19.372,15.283-19.372h89.073C1404.629,1686.946,1411.507,1695.663,1411.507,1706.318Z" transform="translate(-708.741 -1026.054)" fill="#f78248"/>
    <g id="Group_38" data-name="Group 38" transform="translate(628.729 668.526)">
      <g id="Group_36" data-name="Group 36" transform="translate(6.398 7.385)">
        <path id="Path_170" data-name="Path 170" d="M1453.577,1746.13l-7.7-6.893,2.163-2.416,4.973,4.452,6.882-9.845,2.658,1.858Z" transform="translate(-1445.879 -1731.428)" fill="#ffe3ca"/>
      </g>
      <g id="Group_37" data-name="Group 37" transform="translate(0 0)">
        <path id="Path_171" data-name="Path 171" d="M1441.666,1739.028a14.736,14.736,0,1,1,14.736-14.737A14.753,14.753,0,0,1,1441.666,1739.028Zm0-28.714a13.978,13.978,0,1,0,13.978,13.978A13.995,13.995,0,0,0,1441.666,1710.313Z" transform="translate(-1426.93 -1709.556)" fill="#ffe3ca"/>
      </g>
    </g>
    <path id="Path_172" data-name="Path 172" d="M1179.61,717.6s5.538-12.332,18.782-10.962c0,0,19.227-20.554,39.73-2.741,0,0,21.8-4.414,37.936,3.822,10.761,5.491,14.316,11.251,14.316,11.251Z" transform="translate(-634.386 -370.113)" fill="#ebf3fa"/>
    <path id="Path_173" data-name="Path 173" d="M1404.369,660.863c.068,0,.138,0,.207-.005a3.431,3.431,0,0,0,2.267-.883c2.785-2.546,11.27-8.879,20.407-1.6a3.312,3.312,0,0,0,2.543.673c3.529-.515,12.749-1.351,19.968,2.516q.294.158.577.317a3.338,3.338,0,0,1-1.7,6.236l-44.168-.574C1400.138,667.484,1400.042,661.025,1404.369,660.863Z" transform="translate(-781.139 -342.528)" fill="#ebf3fa"/>
    <g id="Group_39" data-name="Group 39" transform="translate(671.23 477.9)">
      <path id="Path_174" data-name="Path 174" d="M1615.133,1274.947h-47.477a14.869,14.869,0,0,1-14.853-14.853V1159.83a14.87,14.87,0,0,1,14.853-14.853h47.477a14.869,14.869,0,0,1,14.853,14.853v100.264A14.869,14.869,0,0,1,1615.133,1274.947Zm-47.477-128.454a13.352,13.352,0,0,0-13.337,13.338v100.264a13.353,13.353,0,0,0,13.337,13.338h47.477a13.352,13.352,0,0,0,13.337-13.338V1159.83a13.352,13.352,0,0,0-13.337-13.338Z" transform="translate(-1552.804 -1144.977)" fill="#ffe3ca"/>
    </g>
    <path id="Rectangle_21" data-name="Rectangle 21" d="M32.3,0H58.15a32.3,32.3,0,0,1,32.3,32.3v0a32.3,32.3,0,0,1-32.3,32.3H32.3A32.3,32.3,0,0,1,0,32.3v0A32.3,32.3,0,0,1,32.3,0Z" transform="translate(570.179 478.657)" fill="#ffe3ca"/>
    <g id="Group_40" data-name="Group 40" transform="translate(569.421 553.152)">
      <path id="Path_175" data-name="Path 175" d="M1332.564,1422.57h-70.613a10.688,10.688,0,0,1-10.675-10.676v-33.367a10.688,10.688,0,0,1,10.675-10.675h70.613a10.688,10.688,0,0,1,10.676,10.675v33.367A10.688,10.688,0,0,1,1332.564,1422.57Zm-70.613-53.2a9.171,9.171,0,0,0-9.16,9.16v33.367a9.17,9.17,0,0,0,9.16,9.16h70.613a9.17,9.17,0,0,0,9.16-9.16v-33.367a9.17,9.17,0,0,0-9.16-9.16Z" transform="translate(-1251.276 -1367.853)" fill="#ffe3ca"/>
    </g>
    <g id="Group_41" data-name="Group 41" transform="translate(690.084 493.384)">
      <path id="Path_176" data-name="Path 176" d="M1608.644,1212.061c0,11.721,19.737,30.457,19.737,30.457s19.737-18.736,19.737-30.457-8.836-21.225-19.737-21.225S1608.644,1200.34,1608.644,1212.061Zm8.107-1.245a11.63,11.63,0,1,1,11.63,11.63A11.651,11.651,0,0,1,1616.751,1210.817Z" transform="translate(-1608.644 -1190.836)" fill="#ffe3ca"/>
    </g>
    <path id="Path_177" data-name="Path 177" d="M1418.639,1249.406l-.935.009a.387.387,0,0,0-.1.013l-7.165,1.957a.38.38,0,0,1-.263-.024l-10.07-3.877c-.258-.124,1.3-.884,1.531-1.053,2.518-1.833,10.5-6.3,13.5-8.281a.656.656,0,0,0-.213-1.186,1.435,1.435,0,0,0-.814.049l-14.668,5.326-1.972-1.249a.617.617,0,0,0-.85.191l-.966,1.529a.618.618,0,0,0,.177.84l-1.89.686a.377.377,0,0,1-.277-.007l-9.026-3.85a3.753,3.753,0,0,0-2.526-.151l-1.039.3a1.282,1.282,0,0,0-.849,1.645l.119.347a4,4,0,0,0,2.378,2.452l7.319,2.754a.379.379,0,0,1,.245.347l.065,3.163-.419-.265a.617.617,0,0,0-.85.191l-.966,1.529a.619.619,0,0,0,.192.851l2.118,1.343.1,4.936a2.017,2.017,0,0,0,.362,1.113c.29.417.6.878.7.83.348-.156,3.664-7.756,4.791-10.747.064-.17,1.5.365,1.672.429l9.978,3.052a.378.378,0,0,1,.241.3l.443,2.911a1.452,1.452,0,0,0,.451.849l.01.009a.378.378,0,0,0,.573-.071l2.32-3.555a.379.379,0,0,1,.3-.172l1.072-.033a.378.378,0,0,0,.25-.651l-.261-.251,5.415-3.842A.378.378,0,0,0,1418.639,1249.406Z" transform="translate(-767.225 -727.98)" fill="#f78e48"/>
    <g id="Group_44" data-name="Group 44" transform="translate(622.27 565.748)">
      <g id="Group_42" data-name="Group 42">
        <path id="Path_178" data-name="Path 178" d="M1422.562,1434.683a14.763,14.763,0,1,1,14.763-14.763A14.78,14.78,0,0,1,1422.562,1434.683Zm0-27.908a13.146,13.146,0,1,0,13.146,13.145A13.16,13.16,0,0,0,1422.562,1406.775Z" transform="translate(-1407.799 -1405.157)" fill="#ffe3ca"/>
      </g>
      <g id="Group_43" data-name="Group 43" transform="translate(13.861 7.494)">
        <path id="Rectangle_22" data-name="Rectangle 22" d="M.614,0h0a.614.614,0,0,1,.614.614V8.636a.614.614,0,0,1-.614.614h0A.614.614,0,0,1,0,8.636V.614A.614.614,0,0,1,.614,0Z" transform="translate(0.193)" fill="#ffe3ca"/>
        <path id="Path_179" data-name="Path 179" d="M1450.517,1436.834l-.017-.017a.3.3,0,0,1,0-.417l8.208-8.208a.3.3,0,0,1,.417,0l.017.017a.3.3,0,0,1,0,.417l-8.208,8.208A.3.3,0,0,1,1450.517,1436.834Z" transform="translate(-1449.886 -1427.852)" fill="#ffe3ca"/>
        <path id="Path_180" data-name="Path 180" d="M1448.85,1451.495a.807.807,0,1,1,.807.807A.807.807,0,0,1,1448.85,1451.495Z" transform="translate(-1448.85 -1442.809)" fill="#ffe3ca"/>
      </g>
    </g>
    <g id="Group_45" data-name="Group 45" transform="translate(579.914 562.829)">
      <rect id="Rectangle_23" data-name="Rectangle 23" width="32.458" height="3.367" transform="translate(0)" fill="#ffe3ca"/>
      <rect id="Rectangle_24" data-name="Rectangle 24" width="32.458" height="3.39" transform="translate(0 7.684)" fill="#ffe3ca"/>
      <rect id="Rectangle_25" data-name="Rectangle 25" width="19.462" height="3.39" transform="translate(0 15.391)" fill="#ffe3ca"/>
    </g>
    <g id="Group_46" data-name="Group 46" transform="translate(693.592 562.972)">
      <rect id="Rectangle_26" data-name="Rectangle 26" width="32.458" height="3.367" fill="#ffe3ca"/>
      <rect id="Rectangle_27" data-name="Rectangle 27" width="32.458" height="3.39" transform="translate(0 7.684)" fill="#ffe3ca"/>
      <rect id="Rectangle_28" data-name="Rectangle 28" width="19.462" height="3.39" transform="translate(0 15.392)" fill="#ffe3ca"/>
    </g>
    <g id="Group_47" data-name="Group 47" transform="translate(581.927 493.515)">
      <rect id="Rectangle_29" data-name="Rectangle 29" width="32.458" height="3.367" transform="translate(0)" fill="#f78e48"/>
      <rect id="Rectangle_30" data-name="Rectangle 30" width="32.458" height="3.39" transform="translate(0 7.684)" fill="#f78e48"/>
      <rect id="Rectangle_31" data-name="Rectangle 31" width="19.462" height="3.39" transform="translate(0 15.392)" fill="#f78e48"/>
    </g>
    <g id="Group_48" data-name="Group 48" transform="translate(791.648 162.917)">
      <path id="Path_181" data-name="Path 181" d="M2004.22,357.186a.758.758,0,0,1-.754-.689c0-.013-.123-1.337-.372-3.68a.758.758,0,1,1,1.507-.16c.25,2.355.374,3.688.375,3.7a.758.758,0,0,1-.685.824C2004.266,357.185,2004.243,357.186,2004.22,357.186Zm-.778-7.351a.757.757,0,0,1-.752-.672c-.127-1.108-.269-2.327-.428-3.647a.758.758,0,1,1,1.5-.181c.159,1.323.3,2.545.429,3.656a.759.759,0,0,1-.754.844Zm-.877-7.3a.758.758,0,0,1-.751-.663q-.22-1.737-.469-3.636a.758.758,0,1,1,1.5-.2q.251,1.9.471,3.644a.757.757,0,0,1-.656.846A.73.73,0,0,1,2002.564,342.538Zm-.96-7.277a.758.758,0,0,1-.75-.655q-.242-1.763-.509-3.629a.758.758,0,0,1,1.5-.214q.267,1.868.51,3.636a.758.758,0,0,1-.648.854A.777.777,0,0,1,2001.6,335.261Zm-1.04-7.262a.757.757,0,0,1-.748-.646q-.265-1.776-.549-3.621a.758.758,0,1,1,1.5-.231q.286,1.849.55,3.629a.758.758,0,0,1-.638.861A.8.8,0,0,1,2000.564,328Zm-1.12-7.247a.758.758,0,0,1-.747-.638q-.285-1.782-.59-3.613a.758.758,0,0,1,1.495-.249q.306,1.835.592,3.622a.758.758,0,0,1-.628.868A.743.743,0,0,1,1999.445,320.752Zm-1.2-7.232a.758.758,0,0,1-.746-.629q-.308-1.785-.633-3.605a.758.758,0,1,1,1.492-.267q.326,1.824.635,3.615a.759.759,0,0,1-.618.875A.771.771,0,0,1,1998.242,313.52Zm-1.291-7.216a.759.759,0,0,1-.745-.62q-.331-1.786-.68-3.6a.758.758,0,0,1,1.489-.287q.349,1.814.682,3.606a.758.758,0,0,1-.746.9Zm-1.387-7.2a.758.758,0,0,1-.742-.609q-.357-1.786-.73-3.585a.758.758,0,1,1,1.484-.308q.374,1.8.733,3.6a.758.758,0,0,1-.594.892A.744.744,0,0,1,1995.564,299.106Zm-1.489-7.176a.758.758,0,0,1-.74-.6q-.383-1.779-.784-3.563a.758.758,0,0,1,1.479-.332q.4,1.79.786,3.576a.759.759,0,0,1-.741.918Zm-1.6-7.143a.758.758,0,0,1-.737-.585q-.416-1.785-.849-3.568a.758.758,0,1,1,1.472-.358q.435,1.788.852,3.581a.758.758,0,0,1-.738.93Zm-1.733-7.13a.759.759,0,0,1-.734-.572q-.45-1.775-.917-3.54a.758.758,0,0,1,1.465-.388q.469,1.772.921,3.555a.758.758,0,0,1-.735.944Zm-1.876-7.084a.758.758,0,0,1-.73-.555q-.49-1.768-1-3.517a.758.758,0,0,1,1.456-.422q.51,1.758,1,3.534a.758.758,0,0,1-.731.96Zm-2.043-7.037a.757.757,0,0,1-.724-.537c-.357-1.169-.724-2.342-1.09-3.487a.758.758,0,0,1,1.444-.463c.369,1.152.737,2.332,1.1,3.507a.758.758,0,0,1-.725.979Zm-2.239-6.978a.758.758,0,0,1-.718-.515c-.392-1.16-.8-2.32-1.2-3.448a.758.758,0,0,1,1.428-.511c.406,1.136.813,2.3,1.208,3.473a.759.759,0,0,1-.718,1ZM1910.2,254.12a.758.758,0,0,1-.7-1.034q.392-1,.786-1.974a.758.758,0,1,1,1.4.569q-.39.963-.779,1.958A.758.758,0,0,1,1910.2,254.12Zm71.9-4.459a.757.757,0,0,1-.708-.489c-.439-1.154-.888-2.3-1.334-3.394a.758.758,0,0,1,1.4-.571c.45,1.109.9,2.261,1.347,3.425a.759.759,0,0,1-.709,1.028Zm-69.713-.884a.758.758,0,0,1-.7-1.057c.492-1.144.993-2.274,1.49-3.36a.758.758,0,1,1,1.378.631c-.492,1.074-.988,2.193-1.475,3.326A.758.758,0,0,1,1912.395,248.778Zm66.952-5.9a.758.758,0,0,1-.695-.455c-.5-1.139-1-2.255-1.5-3.317a.757.757,0,1,1,1.37-.646c.506,1.075,1.018,2.2,1.521,3.357a.758.758,0,0,1-.694,1.061Zm-63.9-.744a.758.758,0,0,1-.68-1.092c.552-1.123,1.115-2.225,1.673-3.278a.758.758,0,1,1,1.339.71c-.551,1.039-1.106,2.128-1.651,3.236A.759.759,0,0,1,1915.445,242.13Zm60.778-5.881a.757.757,0,0,1-.675-.413c-.564-1.1-1.142-2.177-1.718-3.2a.758.758,0,1,1,1.321-.743c.586,1.041,1.173,2.135,1.746,3.253a.758.758,0,0,1-.674,1.1Zm-57.347-.576a.757.757,0,0,1-.656-1.136c.627-1.088,1.268-2.15,1.906-3.157a.758.758,0,1,1,1.28.811c-.626.989-1.256,2.033-1.873,3.1A.757.757,0,0,1,1918.875,235.673Zm53.747-5.8a.757.757,0,0,1-.643-.356c-.658-1.05-1.333-2.062-2-3.009a.758.758,0,1,1,1.236-.877c.688.97,1.379,2.007,2.053,3.081a.758.758,0,0,1-.641,1.161Zm-49.828-.372a.758.758,0,0,1-.619-1.195c.729-1.036,1.474-2.033,2.214-2.964a.758.758,0,0,1,1.187.943c-.722.908-1.449,1.881-2.162,2.893A.758.758,0,0,1,1922.794,229.5Zm45.583-5.581a.757.757,0,0,1-.586-.276c-.788-.958-1.593-1.855-2.393-2.668a.758.758,0,0,1,1.08-1.063c.832.844,1.667,1.776,2.483,2.768a.757.757,0,0,1-.585,1.239Zm-41.024-.13a.758.758,0,0,1-.559-1.27c.859-.939,1.742-1.826,2.622-2.637a.758.758,0,0,1,1.027,1.115c-.849.782-1.7,1.639-2.531,2.546A.757.757,0,0,1,1927.353,223.791Zm5.384-4.931a.758.758,0,0,1-.454-1.365,30.633,30.633,0,0,1,3.129-2.06.758.758,0,1,1,.752,1.315,29.2,29.2,0,0,0-2.973,1.958A.754.754,0,0,1,1932.737,218.859Zm30.507-.108a.754.754,0,0,1-.475-.168,24.185,24.185,0,0,0-2.887-2.012.758.758,0,1,1,.77-1.306,25.7,25.7,0,0,1,3.069,2.139.758.758,0,0,1-.476,1.347Zm-24.168-3.488a.758.758,0,0,1-.279-1.462,24.37,24.37,0,0,1,3.6-1.115.757.757,0,1,1,.333,1.478,22.946,22.946,0,0,0-3.376,1.046A.758.758,0,0,1,1939.077,215.263Zm17.911-.145a.75.75,0,0,1-.259-.046,16.812,16.812,0,0,0-1.7-.52c-.58-.144-1.158-.272-1.716-.382a.758.758,0,0,1,.293-1.487c.581.114,1.183.248,1.786.4a18.36,18.36,0,0,1,1.858.568.758.758,0,0,1-.259,1.47Zm-7.153-1.436-.058,0a24.966,24.966,0,0,0-3.547-.023.758.758,0,1,1-.1-1.512,26.484,26.484,0,0,1,3.761.024.758.758,0,0,1-.056,1.513Z" transform="translate(-1909.447 -212.09)" fill="#f78e48"/>
    </g>
    <path id="Path_183" data-name="Path 183" d="M1116.277,869.744s10.326-.714,12.576,7.386c0,0,7.952-16.2,24.747-14.866s19.9,11.213,19.9,11.213,9.623-3.306,17.614,1.1a14.017,14.017,0,0,1,7.478,12.488s7.327-10.284,22.054-6.611c0,0-2.938-14.87,14.772-18.27s25.231,2.476,25.231,2.476,20.057-12.917,37.813,3.275c0,0,13.01-2.526,19.37,5.487,0,0,13.034-15.75,37.553-12.984v77.865H1116.175Z" transform="translate(-592.37 -478.176)" fill="#d7e2ff"/>
    <path id="Path_184" data-name="Path 184" d="M1116.273,1002.533s17.366-4.393,32.868,5.837c0,0,3.779-4.5,13.619-3.387s12.55,10.2,12.55,10.2,34.429-11.37,51.475,17.05H1116.175Z" transform="translate(-592.37 -572.107)" fill="#ebf3fa"/>
    <path id="Path_185" data-name="Path 185" d="M1506.517,968.548s.879-17.426,19.075-21.593c0,0-9.422-4.168-4.672-14.525s16.286-11.114,16.286-11.114,1.205-18.737,33.919-15.5c9.185.908,18.907,6.407,20.427,16.006a12.408,12.408,0,0,1,10.9-5.444s.909-10.654,11.477-10.562v62.732Z" transform="translate(-850.915 -508.418)" fill="#ebf3fa"/>
    <g id="Group_51" data-name="Group 51" transform="translate(449.134 307.686)">
      <path id="Path_186" data-name="Path 186" d="M1659.336,647.964l-13.73,47.57-.433-.053-46.913-5.7s21.728-4.519,23.986-7.127c2.127-2.457,24.689-31.607,31.288-34.723a2.216,2.216,0,0,1,1.026-.267Z" transform="translate(-1360.816 -645.364)" fill="#739af0"/>
      <path id="Path_187" data-name="Path 187" d="M1645.173,696.008l-46.913-5.7s21.728-4.519,23.986-7.127c2.127-2.458,24.689-31.608,31.288-34.723-5.843,8.484-19.385,28.875-18.81,34.8C1635.271,688.909,1641.877,693.866,1645.173,696.008Z" transform="translate(-1360.816 -645.891)" fill="#2b478b"/>
      <path id="Path_188" data-name="Path 188" d="M1335.408,769.391c-1.6.548-6.386,2.056-12.954,3.966-18.879,5.491-52.462,14.307-67.282,13.218-13.294-.976-83.6-6.344-132.234-10.607,11.767-20.666,26.439-32.084,39.868-38.343,56.66,4.642,130.76,10.915,140.188,12.737,15.509,3,36.083,5.435,36.083,5.435s.14.629.272,1.628C1339.787,760.666,1340.154,767.758,1335.408,769.391Z" transform="translate(-1045.984 -704.951)" fill="#e58638"/>
      <path id="Path_189" data-name="Path 189" d="M1188.63,750.074c0,.116,0,.239-.007.358-.041,2.58-.566,5.457-2.389,7.113-.062.058-.126.113-.191.167a5.03,5.03,0,0,1-.406.3h0v0c-.068.044-.143.088-.218.136s-.146.085-.225.126h0c-.075.041-.154.078-.235.116s-.164.075-.249.109-.17.065-.256.1a.723.723,0,0,1-.079.024v0a.775.775,0,0,0-.082.027c-.027.01-.058.017-.085.027v0c-.031.007-.061.017-.092.027v0a.5.5,0,0,0-.095.031l-.1.031h0v0c-.034.01-.068.021-.1.034s-.072.024-.109.034h0c-.037.013-.072.024-.112.038s-.078.024-.115.037l-.249.082h0l-.126.041h0v0l-.133.041-.1.03c-.354.116-.75.242-1.183.378-.082.024-.16.048-.245.075-1.135.358-2.513.784-4.1,1.261-.164.048-.327.1-.5.15q-.415.128-.849.256c-.061.017-.123.038-.187.055-.085.027-.178.055-.266.082s-.177.051-.269.079l-.273.081-.276.082-.276.082c-.1.027-.19.058-.283.085l-.283.082a0,0,0,0,0,0,0l-.286.082c-.068.021-.136.041-.208.065a.374.374,0,0,0-.082.024l-.293.082c-.491.147-.992.293-1.506.44-.294.089-.594.174-.9.263l-.784.225-.6.174-2.4.682c-.167.048-.331.092-.494.14-.286.082-.573.16-.862.242-.259.075-.522.146-.787.221l-.883.245c-9.813,2.723-21.708,5.777-32.738,8-.385.079-.773.154-1.159.232l-.573.113c-.385.075-.767.146-1.149.218-1.141.218-2.273.426-3.388.62-.371.065-.74.13-1.107.191l-.549.092c-.365.062-.73.12-1.091.181s-.723.112-1.08.167-.709.109-1.063.16-.705.106-1.05.153l-1.036.143-1.022.133-.5.062c-.668.082-1.329.157-1.973.225-.164.017-.324.034-.484.048l-.951.092c-.627.055-1.241.106-1.841.143-.45.034-.893.058-1.325.079-.29.017-.576.027-.859.037-.423.017-.839.027-1.241.031-.542.01-1.067.007-1.571,0-.255,0-.5-.014-.75-.024-.123,0-.242-.007-.365-.017-.242-.01-.477-.024-.709-.041l-.259-.021c-.021,0-.041,0-.061,0-.054-.007-.113-.01-.171-.013-.218-.017-.446-.031-.692-.051-.064,0-.129-.01-.2-.013l-.249-.021c-.126-.007-.259-.017-.392-.027-.072-.007-.143-.01-.215-.017s-.147-.01-.218-.017c-.15-.011-.3-.021-.453-.034s-.31-.024-.47-.034c-.082-.007-.164-.011-.245-.017-.2-.017-.406-.031-.617-.048-.1-.007-.2-.014-.3-.024-.208-.014-.423-.031-.641-.048-.092-.007-.184-.011-.279-.02l-.824-.062c-.781-.058-1.612-.123-2.492-.187-.106-.01-.214-.017-.327-.027-.218-.014-.44-.031-.668-.048-.334-.027-.678-.051-1.029-.079-.143-.014-.286-.024-.426-.034-.331-.024-.668-.051-1.005-.075-.123-.01-.249-.021-.371-.027-.232-.02-.467-.037-.706-.054l-.777-.061-.416-.031-.389-.031c-.208-.014-.416-.03-.627-.048l-3.776-.286c-.191-.017-.378-.031-.573-.044-.29-.024-.583-.048-.879-.068-.682-.054-1.38-.106-2.086-.16-.054-.007-.109-.01-.163-.014l-1.861-.143a.868.868,0,0,0-.089-.007l-12.045-.934-.648-.051q-1.293-.1-2.614-.2l-1.663-.133a.838.838,0,0,1-.092-.007c-.634-.047-1.275-.1-1.919-.15-.078,0-.157-.013-.239-.017-1.128-.089-2.273-.18-3.429-.269l-.89-.071-.272-.021c-1.009-.078-2.031-.16-3.057-.242-.45-.034-.9-.068-1.346-.105-.3-.024-.6-.048-.9-.068q-.91-.076-1.824-.147-1.37-.107-2.751-.218c-.082,0-.163-.013-.246-.017-.381-.034-.76-.061-1.138-.092-.027,0-.054,0-.082-.007-1.132-.089-2.267-.181-3.412-.269l-.1-.01c-.12-.01-.235-.017-.355-.027-.672-.051-1.347-.106-2.021-.16-.508-.041-1.019-.078-1.53-.123-.317-.024-.634-.048-.951-.075-1.326-.1-2.655-.211-3.991-.317l-.034,0q-3.318-.271-6.674-.539c-.306-.024-.61-.048-.917-.075l-.064,0c-.982-.078-1.96-.16-2.945-.238-.3-.024-.6-.048-.906-.075l-2.536-.2q-2.576-.215-5.157-.423l-3.259-.266c-.682-.058-1.363-.116-2.041-.17l-4.861-.4-.231-.021c-1.012-.085-2.028-.167-3.037-.252-1.438-.119-2.877-.242-4.305-.361l-1.714-.143c-.174-.013-.348-.031-.521-.044-1.155-.1-2.3-.194-3.443-.29l-.5-.041c-.784-.068-1.565-.133-2.342-.2q-4.944-.419-9.7-.832c-.382-.031-.76-.065-1.142-.1-.232-.02-.464-.041-.692-.058-.31-.031-.617-.055-.927-.082-.613-.054-1.227-.105-1.834-.16-11.79-1.033-22.308-2-30.427-2.829-.828-.082-1.633-.163-2.406-.245-1.929-.2-3.695-.392-5.283-.576-4.5-.508-7.563-.934-8.78-1.241-6.568-1.656-17.523-6.013-24.241-10.539-4.049-2.73-6.554-5.522-5.624-7.822,1.182-2.928,3.752-4.7,6.391-6,2.287-1.132,4.625-1.909,6.156-2.795.089-.051.174-.1.259-.153a5.321,5.321,0,0,0,.743-.552c.034-.034.068-.061.109-.1a38.418,38.418,0,0,1,3-2.512,36.384,36.384,0,0,1,3.426-2.277.087.087,0,0,0,.021-.014c5.876-3.439,15.7-7.079,30.672-6,0,0,29.3,2.314,65.85,5.31h0c3.644.3,7.359.6,11.122.914h0q1.881.153,3.78.31,2.848.236,5.723.474h0q4.791.4,9.636.8c.644.054,1.292.109,1.939.16q1.938.163,3.875.324l7.764.654q1.933.164,3.865.324c4.6.389,9.175.777,13.688,1.166h.021c13.03,1.118,25.529,2.209,36.613,3.214h0c.587.051,1.169.106,1.745.157,6.507.593,12.5,1.152,17.775,1.663,2.526.248,4.891.484,7.073.706,7.9.8,13.412,1.452,15.563,1.868,5.586,1.081,11.831,2.089,17.529,2.935.47.071.938.14,1.4.2a.5.5,0,0,0,.071.01c.706.106,1.4.2,2.086.3l.061.01,2.318.327c1.1.153,2.157.3,3.156.433.433.058.852.116,1.264.17,4.922.654,8.2,1.043,8.2,1.043s.021.089.052.252c0,.014.006.027.01.041.007.044.017.092.027.147.017.106.041.228.062.368.03.184.064.4.1.634a0,0,0,0,0,0,0c.006.058.016.119.024.181.027.2.054.409.078.637.017.157.034.324.051.491.006.092.016.187.024.283s.017.211.024.317q.015.23.03.47c0,.065.007.129.007.194.007.112.01.228.013.341,0,.062,0,.12,0,.177,0,.116.007.235.007.351C1188.626,749.951,1188.626,750.013,1188.63,750.074Z" transform="translate(-895.022 -694.159)" fill="#d7e2ff"/>
      <path id="Path_190" data-name="Path 190" d="M1473.533,770.927c0,.116,0,.239-.007.358-.041,2.58-.566,5.457-2.389,7.113-.061.058-.126.113-.191.167a4.975,4.975,0,0,1-.406.3h0v0c-.069.044-.144.089-.219.136s-.146.085-.225.126h0c-.074.041-.153.078-.235.116s-.163.074-.249.109-.171.065-.256.1a.743.743,0,0,1-.079.024v0a.669.669,0,0,0-.082.027c-.027.01-.058.017-.085.027v0c-.031.007-.061.017-.092.027v0a.505.505,0,0,0-.1.031l-.1.031h0v0c-.034.01-.068.021-.1.034s-.072.024-.109.034h0l-.113.037c-.037.013-.078.024-.116.037-.082.027-.164.055-.249.082h0l-.126.041h0v0l-.133.041-.1.03c-.354.116-.75.242-1.183.378-.082.024-.161.048-.245.075-1.136.358-2.513.784-4.1,1.261-.164.048-.327.1-.5.15q-.414.128-.849.256c-.061.017-.123.038-.187.055-.085.027-.177.055-.266.082s-.177.051-.27.079l-.272.082-.276.082-.277.082c-.1.028-.19.058-.282.086l-.283.082a0,0,0,0,0,0,0l-.286.082c-.068.021-.136.041-.208.065a.382.382,0,0,0-.081.024l-.293.082q-.736.22-1.506.44c-.293.089-.593.174-.9.263l-.784.225-.6.173-2.4.682c-.167.048-.331.092-.494.14-.286.082-.573.16-.862.242-.26.075-.522.147-.787.221l-.883.245c-9.813,2.724-21.708,5.778-32.738,8-.385.079-.774.154-1.159.232l-.573.112c-.385.075-.767.147-1.149.218q-1.713.327-3.388.62c-.371.065-.739.13-1.108.191l-.549.092c-.365.061-.73.12-1.091.181s-.722.112-1.081.167-.709.109-1.063.16-.705.106-1.05.153l-1.036.143-1.022.133-.5.061c-.668.082-1.329.157-1.974.225-.164.017-.324.034-.484.048l-.95.092c-.628.055-1.241.106-1.841.143-.45.034-.893.058-1.326.078-.29.017-.576.028-.859.037-.423.017-.838.028-1.241.031-.542.01-1.067.007-1.571,0-.256,0-.505-.014-.75-.024-.123,0-.242-.007-.365-.017-.242-.01-.477-.024-.709-.041l-.259-.021c-.021,0-.041,0-.062,0-.054-.007-.112-.01-.171-.013-.218-.017-.446-.031-.692-.051-.064,0-.129-.01-.2-.013l-.249-.021c-.126-.007-.259-.017-.392-.027-.072-.007-.143-.01-.215-.017s-.146-.01-.218-.017c-.151-.01-.3-.021-.454-.034s-.31-.024-.471-.034c-.081-.007-.163-.01-.245-.017-.2-.017-.406-.031-.617-.048-.1-.007-.2-.014-.3-.024-.208-.013-.423-.031-.641-.048-.092-.007-.184-.011-.28-.02l-.825-.062c-.78-.058-1.612-.123-2.492-.187-.106-.01-.215-.017-.327-.027-.218-.014-.44-.031-.668-.047-.334-.027-.678-.051-1.029-.079-.143-.013-.286-.024-.426-.034-.331-.024-.668-.051-1.006-.075-.122-.01-.249-.021-.371-.027-.232-.02-.467-.038-.706-.054l-.777-.061-.416-.031-.389-.031c-.208-.014-.415-.031-.627-.048l-3.777-.286c-.191-.017-.378-.031-.573-.044-.29-.024-.583-.048-.879-.068-.682-.054-1.38-.106-2.086-.16-.054-.007-.109-.01-.163-.014l-1.861-.143a.8.8,0,0,0-.088-.007l-12.046-.934-.648-.051q-1.293-.1-2.614-.2l-1.663-.133a.879.879,0,0,1-.092-.007c-.633-.048-1.274-.1-1.919-.15-.078,0-.157-.013-.239-.017-1.128-.088-2.273-.18-3.429-.269l-.89-.072-.273-.021c-1.009-.078-2.031-.16-3.057-.242-.45-.034-.9-.068-1.346-.106-.3-.024-.6-.048-.9-.068q-.91-.076-1.824-.147-1.371-.107-2.751-.218c-.082,0-.163-.013-.245-.017-.381-.034-.76-.061-1.138-.092-.028,0-.054,0-.082-.007-1.132-.089-2.267-.18-3.412-.269l-.095-.01c-.12-.01-.235-.017-.355-.027,25.658-14.305,32.987-38.87,32.987-38.87h.02c13.031,1.118,25.529,2.209,36.613,3.214h0c.587.051,1.169.106,1.745.157,6.507.593,12.5,1.152,17.775,1.663,2.526.248,4.891.484,7.072.706,7.9.8,13.412,1.452,15.563,1.867,5.587,1.08,11.831,2.089,17.529,2.935.47.072.937.14,1.4.2a.494.494,0,0,0,.071.01c.706.106,1.4.2,2.086.3l.062.011,2.318.327c1.1.153,2.157.3,3.156.433l1.264.17c4.922.654,8.2,1.043,8.2,1.043s.021.089.051.252c0,.014.007.027.01.041.007.045.018.092.028.147.017.106.041.229.061.368.031.184.065.4.1.634a0,0,0,0,0,0,0c.006.058.016.119.024.181.027.2.055.409.078.637.017.157.034.324.051.491.006.092.017.187.024.282s.017.212.024.317q.016.23.03.47c0,.065.007.13.007.194.007.112.01.228.013.341,0,.062,0,.12,0,.177,0,.116.006.235.006.351C1473.53,770.8,1473.53,770.866,1473.533,770.927Z" transform="translate(-1179.926 -715.012)" fill="#f99746"/>
      <path id="Path_191" data-name="Path 191" d="M1708.643,808.23c-1.6.55-6.387,2.058-12.952,3.967a20.91,20.91,0,0,0-9.257-13.011l26.152-2.922C1713.021,799.5,1713.39,806.6,1708.643,808.23Z" transform="translate(-1419.219 -743.791)" fill="#e27727" opacity="0.5"/>
      <g id="Group_49" data-name="Group 49" transform="translate(50.3 38.454)">
        <path id="Path_192" data-name="Path 192" d="M1335.3,785.381h0a1.657,1.657,0,0,1-1.4-1.874l.167-1.843a1.674,1.674,0,0,1,1.711-1.606h0a1.657,1.657,0,0,1,1.4,1.874l-.167,1.843A1.674,1.674,0,0,1,1335.3,785.381Z" transform="translate(-1236.012 -771.507)" fill="#2b478b"/>
        <path id="Path_193" data-name="Path 193" d="M1311.573,783.332h0a1.657,1.657,0,0,1-1.4-1.874l.167-1.842a1.674,1.674,0,0,1,1.711-1.606h0a1.657,1.657,0,0,1,1.4,1.874l-.167,1.843A1.674,1.674,0,0,1,1311.573,783.332Z" transform="translate(-1220.298 -770.15)" fill="#2b478b"/>
        <path id="Path_194" data-name="Path 194" d="M1287.847,781.283h0a1.658,1.658,0,0,1-1.4-1.874l.167-1.842a1.675,1.675,0,0,1,1.711-1.606h0a1.658,1.658,0,0,1,1.4,1.874l-.167,1.843A1.674,1.674,0,0,1,1287.847,781.283Z" transform="translate(-1204.583 -768.792)" fill="#2b478b"/>
        <path id="Path_195" data-name="Path 195" d="M1264.122,779.234h0a1.658,1.658,0,0,1-1.4-1.874l.167-1.843a1.675,1.675,0,0,1,1.711-1.606h0a1.658,1.658,0,0,1,1.4,1.874l-.167,1.843A1.674,1.674,0,0,1,1264.122,779.234Z" transform="translate(-1188.869 -767.436)" fill="#2b478b"/>
        <path id="Path_196" data-name="Path 196" d="M1240.4,777.186h0a1.658,1.658,0,0,1-1.4-1.874l.167-1.843a1.674,1.674,0,0,1,1.711-1.606h0a1.658,1.658,0,0,1,1.4,1.874l-.167,1.842A1.675,1.675,0,0,1,1240.4,777.186Z" transform="translate(-1173.154 -766.079)" fill="#2b478b"/>
        <path id="Path_197" data-name="Path 197" d="M1216.671,775.137h0a1.657,1.657,0,0,1-1.4-1.874l.167-1.843a1.674,1.674,0,0,1,1.71-1.606h0a1.658,1.658,0,0,1,1.4,1.874l-.167,1.843A1.675,1.675,0,0,1,1216.671,775.137Z" transform="translate(-1157.439 -764.722)" fill="#2b478b"/>
        <path id="Path_198" data-name="Path 198" d="M1192.945,773.088h0a1.658,1.658,0,0,1-1.395-1.875l.167-1.842a1.675,1.675,0,0,1,1.711-1.606h0a1.658,1.658,0,0,1,1.4,1.874l-.167,1.843A1.675,1.675,0,0,1,1192.945,773.088Z" transform="translate(-1141.725 -763.365)" fill="#2b478b"/>
        <path id="Path_199" data-name="Path 199" d="M1169.22,771.039h0a1.658,1.658,0,0,1-1.4-1.875l.167-1.842a1.674,1.674,0,0,1,1.711-1.606h0a1.657,1.657,0,0,1,1.395,1.874l-.167,1.843A1.675,1.675,0,0,1,1169.22,771.039Z" transform="translate(-1126.01 -762.007)" fill="#2b478b"/>
        <path id="Path_200" data-name="Path 200" d="M1145.495,768.991h0a1.657,1.657,0,0,1-1.4-1.874l.167-1.843a1.674,1.674,0,0,1,1.71-1.606h0a1.657,1.657,0,0,1,1.4,1.874l-.167,1.843A1.675,1.675,0,0,1,1145.495,768.991Z" transform="translate(-1110.295 -760.651)" fill="#2b478b"/>
        <path id="Path_201" data-name="Path 201" d="M1122.243,766.982h0a1.658,1.658,0,0,1-1.4-1.874l.167-1.843a1.675,1.675,0,0,1,1.711-1.606h0a1.658,1.658,0,0,1,1.4,1.875l-.167,1.842A1.674,1.674,0,0,1,1122.243,766.982Z" transform="translate(-1094.894 -759.32)" fill="#2b478b"/>
        <path id="Path_202" data-name="Path 202" d="M1098.518,764.934h0a1.657,1.657,0,0,1-1.4-1.874l.167-1.842a1.674,1.674,0,0,1,1.711-1.606h0a1.658,1.658,0,0,1,1.4,1.874l-.167,1.843A1.674,1.674,0,0,1,1098.518,764.934Z" transform="translate(-1079.18 -757.964)" fill="#2b478b"/>
        <path id="Path_203" data-name="Path 203" d="M1074.792,762.885h0a1.658,1.658,0,0,1-1.4-1.874l.167-1.843a1.674,1.674,0,0,1,1.71-1.606h0a1.658,1.658,0,0,1,1.4,1.874l-.167,1.843A1.674,1.674,0,0,1,1074.792,762.885Z" transform="translate(-1063.465 -756.607)" fill="#2b478b"/>
        <path id="Path_204" data-name="Path 204" d="M1045.4,760.071h0a1.657,1.657,0,0,1-1.4-1.874l.167-1.843a1.674,1.674,0,0,1,1.71-1.606h0a1.658,1.658,0,0,1,1.4,1.874l-.167,1.843A1.675,1.675,0,0,1,1045.4,760.071Z" transform="translate(-1043.997 -754.743)" fill="#2b478b"/>
      </g>
      <g id="Group_50" data-name="Group 50" transform="translate(219.564 54.097)">
        <path id="Path_205" data-name="Path 205" d="M1594.161,810.5h0a1.658,1.658,0,0,1-1.4-1.874l.167-1.843a1.674,1.674,0,0,1,1.71-1.606h0a1.658,1.658,0,0,1,1.4,1.874l-.167,1.843A1.674,1.674,0,0,1,1594.161,810.5Z" transform="translate(-1576.737 -803.789)" fill="#2b478b"/>
        <path id="Path_206" data-name="Path 206" d="M1570.437,808.452h0a1.658,1.658,0,0,1-1.4-1.874l.167-1.843a1.674,1.674,0,0,1,1.71-1.606h0a1.657,1.657,0,0,1,1.4,1.874l-.167,1.843A1.674,1.674,0,0,1,1570.437,808.452Z" transform="translate(-1561.022 -802.432)" fill="#2b478b"/>
        <path id="Path_207" data-name="Path 207" d="M1546.711,806.4h0a1.657,1.657,0,0,1-1.4-1.874l.167-1.843a1.674,1.674,0,0,1,1.711-1.606h0a1.658,1.658,0,0,1,1.4,1.874l-.167,1.843A1.674,1.674,0,0,1,1546.711,806.4Z" transform="translate(-1545.307 -801.075)" fill="#2b478b"/>
      </g>
      <path id="Path_208" data-name="Path 208" d="M942.24,739.766l-5.461,5.153-3.259.211a5.223,5.223,0,0,0,.744-.552c.036-.033.07-.062.11-.1a38,38,0,0,1,2.995-2.512,36.582,36.582,0,0,1,3.428-2.278l.02-.012Z" transform="translate(-920.521 -706.308)" fill="#2b478b"/>
      <path id="Path_209" data-name="Path 209" d="M952.412,740.5l-5.333,5.2,6.055,1.284,1.912-5.937Z" transform="translate(-929.502 -706.856)" fill="#2b478b"/>
      <path id="Path_210" data-name="Path 210" d="M969.6,742.673l-1.407,5.578,4.487-1.277.288-3.886Z" transform="translate(-943.488 -708.295)" fill="#2b478b"/>
      <path id="Path_211" data-name="Path 211" d="M1275.369,848.646c2.352-.92,2.97-5.016,1.022-6.772s-4.61-3.521-7.606-3.738c-6.16-.446-3.659,12.095-1.615,12.354C1268.372,850.642,1272.238,849.87,1275.369,848.646Z" transform="translate(-1140.009 -771.517)" fill="#2b478b"/>
      <path id="Path_212" data-name="Path 212" d="M1684.008,786.894c.247-.334,23.174-7.891,38.158-4.6l-14.43,9.087-23.2-1.995A1.539,1.539,0,0,1,1684.008,786.894Z" transform="translate(-1417.321 -733.988)" fill="#355daf"/>
      <path id="Path_213" data-name="Path 213" d="M1384.493,640.854s-15.346,33.915-18.267,39.063-9.307,8.434-9.307,8.434l-.037.014-40.662,16.52s-50.718-4-61.755-5.218h0c-1-.112-1.676-.2-1.955-.259-3.354-.714-4.923-2.27-4.279-3.494s78.622-10.574,87.255-11.536c.082-.01.164-.02.246-.027,8.4-.991,9.185-3.85,9.185-3.85l32.172-36.873a4.408,4.408,0,0,1,1.865-1.581A15.079,15.079,0,0,1,1384.493,640.854Z" transform="translate(-1128.876 -640.854)" fill="#d7e2ff"/>
      <path id="Path_214" data-name="Path 214" d="M1378.95,644.382c-8.657,10.508-32.6,39.487-34.878,41.459-2.446,2.123-72.417,13.369-89.608,16.162h0c-1-.111-1.676-.2-1.955-.259-3.354-.715-4.923-2.27-4.279-3.494s78.622-10.574,87.255-11.536,9.43-3.878,9.43-3.878l32.172-36.873A4.408,4.408,0,0,1,1378.95,644.382Z" transform="translate(-1128.876 -643.191)" fill="#739af0"/>
      <path id="Path_215" data-name="Path 215" d="M1556.423,640.854s-15.346,33.915-18.267,39.063-9.308,8.434-9.308,8.434l-.037.014a67.629,67.629,0,0,1-21.152-4.015c8.4-.991,9.184-3.85,9.184-3.85l32.172-36.873a4.4,4.4,0,0,1,1.865-1.581A15.077,15.077,0,0,1,1556.423,640.854Z" transform="translate(-1300.806 -640.854)" fill="#d7e2ff"/>
      <path id="Path_216" data-name="Path 216" d="M1215.478,820.655l-1.544,17.107s-6.537,2.353-16.759,1.807a36.329,36.329,0,0,1-12.718-2.719,13.474,13.474,0,0,1-2.152-1.141l1.619-17.934a5.881,5.881,0,0,1,2.353-1.1c8.081-2.072,27.948,3.284,27.948,3.284Z" transform="translate(-1085.306 -756.998)" fill="#e9f0ff"/>
      <path id="Path_217" data-name="Path 217" d="M1186.276,817.615l-1.819,20.17a13.457,13.457,0,0,1-2.152-1.141l1.619-17.934A5.881,5.881,0,0,1,1186.276,817.615Z" transform="translate(-1085.306 -757.933)" fill="#ff9843"/>
    </g>
    <g id="Group_52" data-name="Group 52" transform="translate(376.757 387.067)">
      <path id="Path_218" data-name="Path 218" d="M753.6,1168.048l120.138-32.068c2.544-.679,4.232-2.709,3.753-4.512L810.13,878.225c-.48-1.8-2.953-2.722-5.5-2.043L684.5,908.25c-2.544.679-4.232,2.709-3.753,4.512L748.1,1166.005C748.583,1167.807,751.056,1168.727,753.6,1168.048Z" transform="translate(-680.661 -875.958)" fill="#ffe3ca"/>
      <path id="Path_219" data-name="Path 219" d="M753.6,1226.222l9.877-2.636-69.1-259.8-9.878,2.637c-2.544.679-4.232,2.709-3.753,4.511L748.1,1224.18C748.583,1225.982,751.056,1226.9,753.6,1226.222Z" transform="translate(-680.661 -934.133)" fill="#f2be8f"/>
      <rect id="Rectangle_32" data-name="Rectangle 32" width="78.666" height="15.955" transform="matrix(0.257, 0.966, -0.966, 0.257, 87.887, 38.742)" fill="#eabc92" opacity="0.5"/>
      <rect id="Rectangle_33" data-name="Rectangle 33" width="111.969" height="15.955" transform="translate(122.082 29.615) rotate(75.105)" fill="#eabc92" opacity="0.5"/>
      <rect id="Rectangle_34" data-name="Rectangle 34" width="55.985" height="3.557" transform="matrix(0.257, 0.966, -0.966, 0.257, 102.743, 34.771)" fill="#f2be8f"/>
      <rect id="Rectangle_35" data-name="Rectangle 35" width="55.985" height="3.557" transform="translate(68.773 43.839) rotate(75.105)" fill="#f2be8f"/>
      <path id="Path_220" data-name="Path 220" d="M782.791,1022.275l.323.887a.357.357,0,0,0,.045.087l4.269,6.17a.383.383,0,0,1,.065.259l-.315,10.9c-.031.287-1.279-.942-1.517-1.106-2.591-1.784-9.525-7.895-12.422-10.088a.663.663,0,0,0-1.058.6,1.444,1.444,0,0,0,.319.759l10,12.189-.529,2.3a.623.623,0,0,0,.467.745l1.781.408a.625.625,0,0,0,.742-.451l1.288,1.57a.379.379,0,0,1,.086.266l-.639,9.891a3.8,3.8,0,0,0,.7,2.458c.207.288.431.6.64.888a1.3,1.3,0,0,0,1.853.257l.29-.229a4.044,4.044,0,0,0,1.538-3.089l.168-7.9a.383.383,0,0,1,.248-.35l2.992-1.124-.112.488a.624.624,0,0,0,.467.746l1.781.407a.625.625,0,0,0,.747-.468l.568-2.469,4.669-1.753a2.044,2.044,0,0,0,.939-.718c.3-.417.637-.862.555-.949-.266-.28-8.62-.888-11.847-.959-.184,0-.156-1.554-.153-1.737l-.441-10.532a.381.381,0,0,1,.2-.329l2.625-1.4a1.467,1.467,0,0,0,.657-.715l.005-.012a.382.382,0,0,0-.26-.521l-4.166-1.018a.382.382,0,0,1-.265-.232l-.392-1.01a.382.382,0,0,0-.7-.02l-.152.333-5.478-3.87A.382.382,0,0,0,782.791,1022.275Z" transform="translate(-741.277 -972.532)" fill="#f2be8f"/>
    </g>
    <g id="Group_57" data-name="Group 57" transform="translate(378.072 490.249)">
      <path id="Rectangle_36" data-name="Rectangle 36" d="M0,0H137.007a32.082,32.082,0,0,1,32.082,32.082V185.67a32.93,32.93,0,0,1-32.93,32.93H0a0,0,0,0,1,0,0V0A0,0,0,0,1,0,0Z" fill="#739af0"/>
      <g id="Group_53" data-name="Group 53" transform="translate(21.572 15.821)">
        <path id="Path_221" data-name="Path 221" d="M751.648,1240.738v6.847h-3.2v-18.428h7.05a8.616,8.616,0,0,1,2.855.436,6.066,6.066,0,0,1,2.107,1.222,5.2,5.2,0,0,1,1.31,1.86,6.019,6.019,0,0,1,.449,2.342,6.127,6.127,0,0,1-.449,2.4,4.761,4.761,0,0,1-1.31,1.8,5.961,5.961,0,0,1-2.107,1.126,9.51,9.51,0,0,1-2.855.393Zm0-2.569H755.5a4.909,4.909,0,0,0,1.589-.228,2.882,2.882,0,0,0,1.094-.646,2.482,2.482,0,0,0,.627-.994,3.878,3.878,0,0,0,.2-1.259,3.933,3.933,0,0,0-.2-1.241,2.846,2.846,0,0,0-.627-1.057,3.044,3.044,0,0,0-1.094-.734,4.192,4.192,0,0,0-1.589-.272h-3.847Z" transform="translate(-748.446 -1228.904)" fill="#aec3ff"/>
        <path id="Path_222" data-name="Path 222" d="M797.932,1243.295h-7.139l-1.493,4.291h-3.329l6.961-18.428h2.873l6.974,18.428h-3.342Zm-6.24-2.582h5.341l-2.671-7.645Z" transform="translate(-773.301 -1228.904)" fill="#aec3ff"/>
        <path id="Path_223" data-name="Path 223" d="M849.733,1242.343a2.811,2.811,0,0,0-.164-.994,1.969,1.969,0,0,0-.6-.8,5.012,5.012,0,0,0-1.2-.7,18.581,18.581,0,0,0-1.968-.7,18.864,18.864,0,0,1-2.43-.9,8.378,8.378,0,0,1-1.917-1.177,5.031,5.031,0,0,1-1.259-1.544,4.258,4.258,0,0,1-.456-2,4.473,4.473,0,0,1,.474-2.051,4.861,4.861,0,0,1,1.336-1.62,6.35,6.35,0,0,1,2.063-1.063,8.8,8.8,0,0,1,2.658-.38,8.176,8.176,0,0,1,2.8.449,6.264,6.264,0,0,1,2.095,1.221,5.329,5.329,0,0,1,1.31,1.791,5.262,5.262,0,0,1,.455,2.171h-3.19a3.516,3.516,0,0,0-.209-1.234,2.558,2.558,0,0,0-.639-.975,2.946,2.946,0,0,0-1.089-.639,4.772,4.772,0,0,0-1.557-.228,5.05,5.05,0,0,0-1.468.19,2.93,2.93,0,0,0-1.032.532,2.1,2.1,0,0,0-.608.81,2.6,2.6,0,0,0-.2,1.013,2.032,2.032,0,0,0,.969,1.709,10.321,10.321,0,0,0,2.955,1.266,17.251,17.251,0,0,1,2.7,1.012,7.722,7.722,0,0,1,1.892,1.26,4.553,4.553,0,0,1,1.12,1.582,5.1,5.1,0,0,1,.367,1.981,4.646,4.646,0,0,1-.462,2.095,4.465,4.465,0,0,1-1.316,1.582,6.17,6.17,0,0,1-2.069,1,9.811,9.811,0,0,1-2.708.348,9.7,9.7,0,0,1-2.62-.36,7.41,7.41,0,0,1-2.316-1.089,5.666,5.666,0,0,1-1.652-1.817,5.034,5.034,0,0,1-.626-2.557h3.2a3.348,3.348,0,0,0,.31,1.5,2.788,2.788,0,0,0,.848,1.025,3.556,3.556,0,0,0,1.272.583,6.521,6.521,0,0,0,1.582.183,3.951,3.951,0,0,0,2.512-.677A2.185,2.185,0,0,0,849.733,1242.343Z" transform="translate(-808.534 -1228.407)" fill="#aec3ff"/>
        <path id="Path_224" data-name="Path 224" d="M896.066,1242.343a2.8,2.8,0,0,0-.165-.994,1.958,1.958,0,0,0-.6-.8,5,5,0,0,0-1.2-.7,18.553,18.553,0,0,0-1.968-.7,18.877,18.877,0,0,1-2.43-.9,8.375,8.375,0,0,1-1.917-1.177,5.034,5.034,0,0,1-1.26-1.544,4.258,4.258,0,0,1-.456-2,4.473,4.473,0,0,1,.474-2.051,4.864,4.864,0,0,1,1.335-1.62,6.356,6.356,0,0,1,2.063-1.063,8.8,8.8,0,0,1,2.658-.38,8.176,8.176,0,0,1,2.8.449,6.267,6.267,0,0,1,2.1,1.221,5.321,5.321,0,0,1,1.31,1.791,5.259,5.259,0,0,1,.456,2.171h-3.189a3.528,3.528,0,0,0-.209-1.234,2.568,2.568,0,0,0-.639-.975,2.947,2.947,0,0,0-1.089-.639,4.774,4.774,0,0,0-1.557-.228,5.05,5.05,0,0,0-1.468.19,2.93,2.93,0,0,0-1.031.532,2.1,2.1,0,0,0-.608.81,2.6,2.6,0,0,0-.2,1.013,2.032,2.032,0,0,0,.969,1.709,10.315,10.315,0,0,0,2.955,1.266,17.258,17.258,0,0,1,2.7,1.012,7.716,7.716,0,0,1,1.892,1.26,4.553,4.553,0,0,1,1.12,1.582,5.1,5.1,0,0,1,.367,1.981,4.648,4.648,0,0,1-.462,2.095,4.471,4.471,0,0,1-1.316,1.582,6.17,6.17,0,0,1-2.07,1,9.812,9.812,0,0,1-2.709.348,9.7,9.7,0,0,1-2.62-.36,7.417,7.417,0,0,1-2.316-1.089,5.667,5.667,0,0,1-1.652-1.817,5.034,5.034,0,0,1-.626-2.557h3.2a3.339,3.339,0,0,0,.311,1.5,2.788,2.788,0,0,0,.848,1.025,3.553,3.553,0,0,0,1.272.583,6.519,6.519,0,0,0,1.582.183,3.951,3.951,0,0,0,2.513-.677A2.185,2.185,0,0,0,896.066,1242.343Z" transform="translate(-839.223 -1228.407)" fill="#aec3ff"/>
        <path id="Path_225" data-name="Path 225" d="M937.808,1240.738v6.847h-3.2v-18.428h7.05a8.615,8.615,0,0,1,2.854.436,6.07,6.07,0,0,1,2.107,1.222,5.2,5.2,0,0,1,1.31,1.86,6.017,6.017,0,0,1,.449,2.342,6.125,6.125,0,0,1-.449,2.4,4.765,4.765,0,0,1-1.31,1.8,5.965,5.965,0,0,1-2.107,1.126,9.509,9.509,0,0,1-2.854.393Zm0-2.569h3.848a4.909,4.909,0,0,0,1.589-.228,2.889,2.889,0,0,0,1.095-.646,2.485,2.485,0,0,0,.627-.994,3.883,3.883,0,0,0,.2-1.259,3.939,3.939,0,0,0-.2-1.241,2.85,2.85,0,0,0-.627-1.057,3.053,3.053,0,0,0-1.095-.734,4.193,4.193,0,0,0-1.589-.272h-3.848Z" transform="translate(-871.75 -1228.904)" fill="#aec3ff"/>
        <path id="Path_226" data-name="Path 226" d="M997.241,1238.356a11.973,11.973,0,0,1-.55,3.765,8.212,8.212,0,0,1-1.551,2.823,6.725,6.725,0,0,1-2.4,1.778,8.1,8.1,0,0,1-6.215,0,6.9,6.9,0,0,1-2.424-1.778,8.183,8.183,0,0,1-1.582-2.823,11.7,11.7,0,0,1-.563-3.765v-.937a11.76,11.76,0,0,1,.563-3.772,8.373,8.373,0,0,1,1.57-2.835,6.752,6.752,0,0,1,2.411-1.785,8.112,8.112,0,0,1,6.221,0,6.737,6.737,0,0,1,2.418,1.785,8.221,8.221,0,0,1,1.557,2.835,12.033,12.033,0,0,1,.55,3.772Zm-3.2-.962a11.254,11.254,0,0,0-.3-2.728,5.818,5.818,0,0,0-.867-1.981,3.761,3.761,0,0,0-1.4-1.209,4.172,4.172,0,0,0-1.88-.411,4.072,4.072,0,0,0-1.848.411,3.824,3.824,0,0,0-1.4,1.209,5.913,5.913,0,0,0-.886,1.981,10.822,10.822,0,0,0-.31,2.728v.962a10.892,10.892,0,0,0,.31,2.734,5.907,5.907,0,0,0,.893,1.994,3.831,3.831,0,0,0,1.411,1.215,4.114,4.114,0,0,0,1.854.411,3.767,3.767,0,0,0,3.272-1.62,8.167,8.167,0,0,0,1.146-4.734Z" transform="translate(-903.109 -1228.407)" fill="#aec3ff"/>
        <path id="Path_227" data-name="Path 227" d="M1043.453,1240.485h-3.569v7.1h-3.2v-18.428h6.48a10.11,10.11,0,0,1,2.822.361,5.809,5.809,0,0,1,2.1,1.063,4.516,4.516,0,0,1,1.3,1.741,6.086,6.086,0,0,1,.443,2.4,5.179,5.179,0,0,1-.892,3.1,5.675,5.675,0,0,1-2.488,1.918l4.139,7.683v.164h-3.43Zm-3.569-2.569h3.291a4.522,4.522,0,0,0,1.506-.228,3,3,0,0,0,1.076-.633,2.581,2.581,0,0,0,.646-.962,3.382,3.382,0,0,0,.215-1.227,3.857,3.857,0,0,0-.2-1.285,2.553,2.553,0,0,0-.62-.988,2.755,2.755,0,0,0-1.07-.633,4.874,4.874,0,0,0-1.563-.222h-3.278Z" transform="translate(-939.361 -1228.904)" fill="#aec3ff"/>
        <path id="Path_228" data-name="Path 228" d="M1093.473,1231.739h-5.746v15.847h-3.177v-15.847h-5.7v-2.582h14.618Z" transform="translate(-967.295 -1228.904)" fill="#aec3ff"/>
      </g>
      <g id="Group_54" data-name="Group 54" transform="translate(52.368 192.178)">
        <path id="Path_229" data-name="Path 229" d="M920.172,1753.69H894.762a1.482,1.482,0,0,1-1.482-1.482h0a1.481,1.481,0,0,1,1.482-1.481h25.411a1.481,1.481,0,0,1,1.482,1.481h0A1.482,1.482,0,0,1,920.172,1753.69Z" transform="translate(-875.174 -1750.727)" fill="#aec3ff"/>
        <path id="Path_230" data-name="Path 230" d="M902.76,1774.612H841.137a1.482,1.482,0,0,1-1.482-1.482h0a1.482,1.482,0,0,1,1.482-1.482H902.76a1.482,1.482,0,0,1,1.482,1.482h0A1.481,1.481,0,0,1,902.76,1774.612Z" transform="translate(-839.655 -1764.584)" fill="#aec3ff"/>
      </g>
      <g id="Group_55" data-name="Group 55" transform="translate(24.388 53.002)">
        <path id="Path_231" data-name="Path 231" d="M817.061,1459.073a60.273,60.273,0,1,1,42.619-17.653A59.878,59.878,0,0,1,817.061,1459.073Zm0-119.883a59.609,59.609,0,1,0,42.151,17.459A59.221,59.221,0,0,0,817.061,1339.19Z" transform="translate(-756.788 -1338.527)" fill="#aec3ff"/>
      </g>
      <path id="Path_232" data-name="Path 232" d="M888.819,1422.234a48.665,48.665,0,0,1-.781,8.705,48.342,48.342,0,0,1-91.749,10.86,47.494,47.494,0,0,1-2.461-6.95,48.679,48.679,0,0,1-.569-22.9c.007-.038.017-.075.024-.113a48.454,48.454,0,0,1,18.864-28.749q1.49-1.082,3.066-2.05a48.071,48.071,0,0,1,25.279-7.133q1.844,0,3.652.137a48.014,48.014,0,0,1,23.936,8.507h0a48.513,48.513,0,0,1,13.256,13.842q1.11,1.754,2.073,3.6a48.116,48.116,0,0,1,5.407,22.239Z" transform="translate(-755.83 -1308.957)" fill="#aec3ff"/>
      <g id="Group_56" data-name="Group 56" transform="translate(37.429 71.628)">
        <path id="Path_233" data-name="Path 233" d="M826.224,1414.593c-1.929,3.055.805,8.358-4.981,6.912s-9.322-2.09-9.643,1.123,4.339,3.216,4.339,6.591-2.09,4.491-5.3,2.888-4.139-3.934-7.876-2.488-5.906.482-6.75-2.41a4.236,4.236,0,0,0-.6-1.266c.007-.038.017-.075.024-.113a48.455,48.455,0,0,1,18.864-28.75q1.49-1.081,3.067-2.05a6.358,6.358,0,0,1,4.843,2.526c3.375,4.18,5.624,2.09,4.822,6.911s.482,5.466,3.213,5.3,5.947-.161,6.268,1.929S828.152,1411.539,826.224,1414.593Z" transform="translate(-795.41 -1394.578)" fill="#94b0ed"/>
        <path id="Path_234" data-name="Path 234" d="M897.219,1520.464s-4.259,1.365-5.384-1.607.161-3.616-3.616-4.5-4.1-3.456-6.509-3.134-1.2,1.286-4.017,3.375-5.384,1.125-5.3,4.982,4.259,4.46,5.1,6.991-.6,3.616,1.205,5.545,5.183,1.085,3.616,3.736-3.978,4.7-2.773,8.8.361,4.339,2.411,7.232,6.027,3.857,6.63,1.928-2.772-4.459-1.688-6.388,2.893-.6,3.616-3.5,3.656-2.893,3.9-4.9-3.536-5.063-2.089-6.348,4.339,2.33,6.589-.884.723-5.786,3.054-8.839S898.826,1518.7,897.219,1520.464Z" transform="translate(-846.396 -1471.52)" fill="#94b0ed"/>
        <path id="Path_235" data-name="Path 235" d="M1005.277,1477.078a48.672,48.672,0,0,1-.781,8.705,48.061,48.061,0,0,1-7.628,18.541,5.516,5.516,0,0,1-3.864-.1c-6.027-2.411-1.568-8.92.843-12.175s-3.736-1.808-8.2-4.821.482-11.089-4.1-9.763-10.124,3.013-12.776-1.447,2.411-5.183.121-8.919,1.325-5.907,5.906-6.268,3.977-3.616,9.643-4.1,5.545,6.75,11.812,6.268,5.986.964,5.986.964a2.923,2.923,0,0,1,1.309.276A48.416,48.416,0,0,1,1005.277,1477.078Z" transform="translate(-909.717 -1435.43)" fill="#94b0ed"/>
        <path id="Path_236" data-name="Path 236" d="M1004.947,1416.951c-5.212,2.536-7.3-4.361-11.759-2.288-4.491,2.09-3.705-1.929-7.239-4.5s-10.607,2.091-10.286-1.929,5.624-2.892,6.75-6.106,6.268-2.41,6.268-2.41a3.476,3.476,0,0,1,.935-.212s0,0,0,0a48.518,48.518,0,0,1,13.256,13.843Q1003.984,1415.1,1004.947,1416.951Z" transform="translate(-914.794 -1397.541)" fill="#94b0ed"/>
        <path id="Path_237" data-name="Path 237" d="M907.4,1399.241s2.732-3.942-1.608-5.1-4.259.359-7.633,0-4.7,2.252-2.17,5.1,4.58,8.327,6.87,5.409S904.7,1399.523,907.4,1399.241Z" transform="translate(-861.153 -1393.691)" fill="#94b0ed"/>
      </g>
    </g>
  </g>
</svg>
